<?xml version="1.0" encoding="UTF-8" standalone="no"?>
<svg width="24px" height="24px" viewBox="0 0 24 24" version="1.1" xmlns="http://www.w3.org/2000/svg" xmlns:xlink="http://www.w3.org/1999/xlink">
    <!-- Generator: Sketch 39.1 (31720) - http://www.bohemiancoding.com/sketch -->
    <title>Page 1 Copy 2</title>
    <desc>Created with Sketch.</desc>
    <defs>
        <polygon id="path-1" points="11.5901217 23.8509317 0 23.8509317 0 0.670551908 11.5901217 0.670551908 23.1802435 0.670551908 23.1802435 23.8509317"></polygon>
    </defs>
    <g id="Un-authenticated-(CommBank)" stroke="none" stroke-width="1" fill="none" fill-rule="evenodd">
        <g id="Tablet-Portrait" transform="translate(-221.000000, -1933.000000)">
            <g id="Global-footer" transform="translate(0.000000, 1745.000000)">
                <g id="Page-1-Copy-2" transform="translate(221.000000, 188.000000)">
                    <g id="Group-3" transform="translate(0.000000, 0.010631)">
                        <mask id="mask-2" fill="white">
                            <use xlink:href="#path-1"></use>
                        </mask>
                        <g id="Clip-2"></g>
                        <path d="M11.5900536,23.8509317 C17.9909622,23.8509317 23.1802435,18.6623319 23.1802435,12.2607418 C23.1802435,5.86051464 17.9909622,0.670551908 11.5900536,0.670551908 C5.18914499,0.670551908 -0.000136291038,5.86051464 -0.000136291038,12.2607418 C-0.000136291038,18.6623319 5.18914499,23.8509317 11.5900536,23.8509317" id="Fill-1" fill="#547BBD" mask="url(#mask-2)"></path>
                    </g>
                    <path d="M8.79404295,10.308986 L9.99204117,10.308986 L9.99204117,9.14437906 C9.99204117,8.6312433 10.0049888,7.83871091 10.3784263,7.34874463 C10.7709445,6.82947578 11.310657,6.47580053 12.2381175,6.47580053 C13.7495851,6.47580053 14.3860642,6.69182183 14.3860642,6.69182183 L14.0869054,8.4670126 C14.0869054,8.4670126 13.5873988,8.3225441 13.1212834,8.3225441 C12.6558495,8.3225441 12.2381175,8.48950062 12.2381175,8.95561597 L12.2381175,10.308986 L14.1489178,10.308986 L14.0160341,12.042608 L12.2381175,12.042608 L12.2381175,18.0666719 L9.99204117,18.0666719 L9.99204117,12.042608 L8.79404295,12.042608 L8.79404295,10.308986 Z" id="Fill-4" fill="#FEFEFE"></path>
                </g>
            </g>
        </g>
    </g>
</svg>