<?xml version="1.0" encoding="utf-8"?>
<!-- Generator: Adobe Illustrator 19.0.1, SVG Export Plug-In . SVG Version: 6.00 Build 0)  -->
<svg version="1.0" id="OLD" xmlns="http://www.w3.org/2000/svg" xmlns:xlink="http://www.w3.org/1999/xlink" x="0px" y="0px"
	 viewBox="-584 408.9 23 24" style="enable-background:new -584 408.9 23 24;" xml:space="preserve">
<style type="text/css">
	.st0{fill:#696968;}
	.st1{fill:#FFFFFF;}
</style>
<circle class="st0" cx="-572.5" cy="421" r="11.3"/>
<path class="st1" d="M-572.7,418c-1.6,0-3,1.3-3,3c0,1.6,1.3,3,3,3c1.6,0,3-1.3,3-3C-569.7,419.3-571.1,418-572.7,418z
	 M-572.7,422.9c-1.1,0-1.9-0.9-1.9-1.9c0-1.1,0.9-1.9,1.9-1.9c1.1,0,1.9,0.9,1.9,1.9C-570.8,422-571.6,422.9-572.7,422.9z"/>
<circle class="st1" cx="-569.6" cy="417.9" r="0.7"/>
<path class="st1" d="M-570.2,426.6h-4.7c-1.8,0-3.3-1.5-3.3-3.3v-4.8c0-1.8,1.5-3.3,3.3-3.3h4.7c1.8,0,3.3,1.5,3.3,3.3v4.8
	C-566.8,425.1-568.3,426.6-570.2,426.6z M-574.8,416.2c-1.3,0-2.3,1-2.3,2.3v4.8c0,1.3,1,2.3,2.3,2.3h4.7c1.3,0,2.3-1,2.3-2.3v-4.8
	c0-1.3-1-2.3-2.3-2.3H-574.8z"/>
</svg>
