<?xml version="1.0" encoding="UTF-8" standalone="no"?>
<svg width="24px" height="24px" viewBox="0 0 24 24" version="1.1" xmlns="http://www.w3.org/2000/svg" xmlns:xlink="http://www.w3.org/1999/xlink">
    <!-- Generator: Sketch 39.1 (31720) - http://www.bohemiancoding.com/sketch -->
    <title>Page 1 Copy 4</title>
    <desc>Created with Sketch.</desc>
    <defs>
        <polygon id="path-1" points="11.66256 24 0 24 0 0.674742857 11.66256 0.674742857 23.32512 0.674742857 23.32512 24"></polygon>
    </defs>
    <g id="Un-authenticated-(CommBank)" stroke="none" stroke-width="1" fill="none" fill-rule="evenodd">
        <g id="Tablet-Portrait" transform="translate(-333.000000, -1933.000000)">
            <g id="Global-footer" transform="translate(0.000000, 1745.000000)">
                <g id="Page-1-Copy-4" transform="translate(333.000000, 188.000000)">
                    <g id="Group-3" transform="translate(0.000000, 0.010766)">
                        <mask id="mask-2" fill="white">
                            <use xlink:href="#path-1"></use>
                        </mask>
                        <g id="Clip-2"></g>
                        <path d="M11.6624914,24 C18.1047771,24 23.32512,18.7782857 23.32512,12.3373714 C23.32512,5.89645714 18.1047771,0.674742857 11.6624914,0.674742857 C5.22157714,0.674742857 -0.000137142857,5.89645714 -0.000137142857,12.3373714 C-0.000137142857,18.7782857 5.22157714,24 11.6624914,24" id="Fill-1" fill="#1385C7" mask="url(#mask-2)"></path>
                    </g>
                    <path d="M17.4937371,17.2258971 L14.9161371,17.2258971 L14.9161371,13.4613257 C14.9161371,12.4759543 14.5129371,11.8032686 13.6263086,11.8032686 C12.9481371,11.8032686 12.5709943,12.2572114 12.3954514,12.6946971 C12.3296229,12.8517257 12.3399086,13.0704686 12.3399086,13.2892114 L12.3399086,17.2258971 L9.78630857,17.2258971 C9.78630857,17.2258971 9.81922286,10.5573257 9.78630857,9.95115429 L12.3399086,9.95115429 L12.3399086,11.0928686 C12.4907657,10.5936686 13.3067657,9.88121143 14.6096229,9.88121143 C16.22448,9.88121143 17.4937371,10.9276114 17.4937371,13.1808686 L17.4937371,17.2258971 Z M7.20390857,9.04121143 L7.18745143,9.04121143 C6.36459429,9.04121143 5.83110857,8.48509714 5.83110857,7.78018286 C5.83110857,7.06155429 6.38105143,6.51709714 7.21968,6.51709714 C8.05830857,6.51709714 8.57396571,7.06018286 8.59042286,7.77812571 C8.59042286,8.48304 8.05830857,9.04121143 7.20390857,9.04121143 L7.20390857,9.04121143 Z M6.12459429,17.2258971 L8.39842286,17.2258971 L8.39842286,9.95115429 L6.12459429,9.95115429 L6.12459429,17.2258971 Z" id="Fill-4" fill="#FEFEFE"></path>
                </g>
            </g>
        </g>
    </g>
</svg>