<?xml version="1.0" encoding="UTF-8" standalone="no"?>
<svg width="23px" height="24px" viewBox="0 0 23 24" version="1.1" xmlns="http://www.w3.org/2000/svg" xmlns:xlink="http://www.w3.org/1999/xlink">
    <!-- Generator: Sketch 39.1 (31720) - http://www.bohemiancoding.com/sketch -->
    <title>Page 1</title>
    <desc>Created with Sketch.</desc>
    <defs>
        <polygon id="path-1" points="11.3386 23.3333333 0 23.3333333 0 0.656 11.3386 0.656 22.6772 0.656 22.6772 23.3333333"></polygon>
    </defs>
    <g id="Un-authenticated-(CommBank)" stroke="none" stroke-width="1" fill="none" fill-rule="evenodd">
        <g id="Mobile-Portrait-Copy-5" transform="translate(-14.000000, -1904.000000)">
            <g id="Page-1" transform="translate(14.000000, 1904.000000)">
                <g id="Group-3" transform="translate(0.000000, 0.010400)">
                    <mask id="mask-2" fill="white">
                        <use xlink:href="#path-1"></use>
                    </mask>
                    <g id="Clip-2"></g>
                    <path d="M11.3385333,23.3333333 C17.6012,23.3333333 22.6772,18.2566667 22.6772,11.9946667 C22.6772,5.73266667 17.6012,0.656 11.3385333,0.656 C5.0752,0.656 -0.000133333333,5.73266667 -0.000133333333,11.9946667 C-0.000133333333,18.2566667 5.0752,23.3333333 11.3385333,23.3333333" id="Fill-1" fill="#F4E60B" mask="url(#mask-2)"></path>
                </g>
                <path d="M11.4158,17.7681333 C11.3811333,17.7681333 11.3478,17.7668 11.3224667,17.7654667 C11.3024667,17.7674667 11.2818,17.7681333 11.2611333,17.7681333 C10.5298,17.7681333 10.0411333,17.4228 9.6098,17.1174667 C9.30113333,16.8988 9.00913333,16.6928 8.6678,16.6361333 C8.4998,16.6081333 8.33313333,16.5941333 8.1718,16.5941333 C7.88113333,16.5941333 7.6518,16.6394667 7.48446667,16.6721333 C7.38113333,16.6921333 7.2918,16.7094667 7.22313333,16.7094667 C7.15113333,16.7094667 7.0638,16.6934667 7.02713333,16.5688 C6.99846667,16.4708 6.9778,16.3754667 6.9578,16.2841333 C6.9078,16.0548 6.87113333,15.9154667 6.7858,15.9021333 C5.86913333,15.7608 5.32713333,15.5521333 5.21913333,15.3001333 C5.2078,15.2734667 5.2018,15.2468 5.20046667,15.2201333 C5.1958,15.1448 5.24913333,15.0788 5.32313333,15.0668 C6.05113333,14.9468 6.69846667,14.5621333 7.2478,13.9228 C7.67246667,13.4274667 7.8818,12.9548 7.9038,12.9021333 C7.90513333,12.9001333 7.9058,12.8974667 7.90713333,12.8954667 C8.01313333,12.6808 8.0338,12.4948 7.9698,12.3441333 C7.8518,12.0654667 7.46046667,11.9414667 7.2018,11.8594667 C7.13713333,11.8388 7.07646667,11.8194667 7.0278,11.8001333 C6.79846667,11.7094667 6.42113333,11.5181333 6.47113333,11.2541333 C6.5078,11.0608 6.76313333,10.9268 6.96913333,10.9268 C7.02646667,10.9268 7.07713333,10.9368 7.1198,10.9568 C7.35246667,11.0661333 7.5618,11.1214667 7.7418,11.1214667 C7.9658,11.1214667 8.07446667,11.0361333 8.10046667,11.0121333 C8.0938,10.8921333 8.0858,10.7661333 8.07846667,10.6461333 L8.07846667,10.6448 C8.0258,9.80813333 7.9598,8.76746667 8.22646667,8.17013333 C9.02313333,6.38346667 10.7131333,6.2448 11.2124667,6.2448 C11.2258,6.2448 11.4298,6.2428 11.4298,6.2428 C11.4391333,6.24213333 11.4491333,6.24213333 11.4591333,6.24213333 C11.9598,6.24213333 13.6531333,6.38146667 14.4504667,8.16946667 C14.7171333,8.7668 14.6511333,9.8088 14.5984667,10.6461333 L14.5958,10.6861333 C14.5891333,10.7994667 14.5824667,10.9074667 14.5764667,11.0114667 C14.6011333,11.0341333 14.7004667,11.1128 14.9018,11.1201333 C15.0731333,11.1141333 15.2704667,11.0588 15.4878,10.9568 C15.5551333,10.9254667 15.6298,10.9188 15.6798,10.9188 C15.7564667,10.9188 15.8338,10.9341333 15.8984667,10.9608 L15.9024667,10.9621333 C16.0864667,11.0274667 16.2071333,11.1588 16.2098,11.2961333 C16.2124667,11.4241333 16.1171333,11.6154667 15.6491333,11.8001333 C15.6011333,11.8194667 15.5398,11.8388 15.4751333,11.8594667 C15.2158,11.9414667 14.8251333,12.0654667 14.7071333,12.3441333 C14.6424667,12.4948 14.6638,12.6801333 14.7698,12.8948 C14.7711333,12.8974667 14.7718,12.8994667 14.7731333,12.9021333 C14.8058,12.9788 15.5944667,14.7768 17.3538,15.0668 C17.4278,15.0788 17.4811333,15.1448 17.4764667,15.2201333 C17.4751333,15.2468 17.4684667,15.2741333 17.4571333,15.3001333 C17.3498,15.5514667 16.8084667,15.7594667 15.8911333,15.9008 C15.8051333,15.9141333 15.7691333,16.0534667 15.7191333,16.2814667 C15.6991333,16.3754667 15.6778,16.4674667 15.6498,16.5641333 C15.6231333,16.6554667 15.5638,16.7001333 15.4684667,16.7001333 L15.4538,16.7001333 C15.3918,16.7001333 15.3038,16.6888 15.1931333,16.6668 C14.9991333,16.6294667 14.7818,16.5941333 14.5051333,16.5941333 C14.3438,16.5941333 14.1771333,16.6081333 14.0091333,16.6361333 C13.6678,16.6928 13.3764667,16.8988 13.0678,17.1168 C12.6358,17.4228 12.1464667,17.7681333 11.4158,17.7681333" id="Fill-4" fill="#FEFEFE"></path>
            </g>
        </g>
    </g>
</svg>