<?xml version="1.0" encoding="UTF-8" standalone="no"?>
<svg width="24px" height="24px" viewBox="0 0 24 24" version="1.1" xmlns="http://www.w3.org/2000/svg" xmlns:xlink="http://www.w3.org/1999/xlink">
    <!-- Generator: Sketch 39.1 (31720) - http://www.bohemiancoding.com/sketch -->
    <title>Page 1 Copy</title>
    <desc>Created with Sketch.</desc>
    <defs>
        <polygon id="path-1" points="11.6627314 24 23.3252571 24 23.3252571 0.674742857 11.6627314 0.674742857 0.000205714286 0.674742857 0.000205714286 24 11.6627314 24"></polygon>
    </defs>
    <g id="Un-authenticated-(CommBank)" stroke="none" stroke-width="1" fill="none" fill-rule="evenodd">
        <g id="Tablet-Portrait" transform="translate(-23.000000, -1933.000000)">
            <g id="Global-footer" transform="translate(0.000000, 1745.000000)">
                <g id="Page-1-Copy" transform="translate(23.000000, 188.000000)">
                    <g id="Group-3" transform="translate(0.000000, 0.010697)">
                        <mask id="mask-2" fill="white">
                            <use xlink:href="#path-1"></use>
                        </mask>
                        <g id="Clip-2"></g>
                        <path d="M11.6628343,24 C18.1037486,24 23.3254629,18.7789714 23.3254629,12.3373714 C23.3254629,5.89714286 18.1037486,0.674742857 11.6628343,0.674742857 C5.22192,0.674742857 0.000205714286,5.89714286 0.000205714286,12.3373714 C0.000205714286,18.7789714 5.22192,24 11.6628343,24" id="Fill-1" fill="#78CCF0" mask="url(#mask-2)"></path>
                    </g>
                    <path d="M17.5138286,9.29300571 C17.0845714,9.48363429 16.6217143,9.61254857 16.1376,9.67014857 C16.6326857,9.37392 17.0125714,8.90420571 17.1908571,8.34466286 C16.728,8.61963429 16.2157714,8.81849143 15.6685714,8.92546286 C15.2324571,8.45986286 14.6091429,8.16912 13.9193143,8.16912 C12.5965714,8.16912 11.5234286,9.24226286 11.5234286,10.5656914 C11.5234286,10.7535771 11.544,10.9359771 11.5851429,11.11152 C9.59314286,11.0114057 7.82742857,10.0582629 6.64457143,8.60660571 C6.43817143,8.96249143 6.32022857,9.37392 6.32022857,9.81277714 C6.32022857,10.6438629 6.74331429,11.3775771 7.38651429,11.80752 C6.9936,11.7958629 6.624,11.6868343 6.30034286,11.5085486 L6.30034286,11.5380343 C6.30034286,12.6996343 7.12662857,13.6685486 8.22377143,13.8879771 C8.02217143,13.9442057 7.81097143,13.97232 7.59154286,13.97232 C7.43725714,13.97232 7.2864,13.95792 7.14102857,13.9298057 C7.44548571,14.8815771 8.33074286,15.57552 9.37988571,15.5933486 C8.55908571,16.2365486 7.52571429,16.6198629 6.4032,16.6198629 C6.20982857,16.6198629 6.01851429,16.6088914 5.83131429,16.5869486 C6.89211429,17.2658057 8.15177143,17.6628343 9.50537143,17.6628343 C13.9145143,17.6628343 16.3248,14.0114057 16.3248,10.8440914 C16.3248,10.7398629 16.3227429,10.6356343 16.3179429,10.5341486 C16.7862857,10.1954057 17.1936,9.77369143 17.5138286,9.29300571" id="Fill-4" fill="#FEFEFE"></path>
                </g>
            </g>
        </g>
    </g>
</svg>