<?xml version="1.0" encoding="UTF-8" standalone="no"?>
<svg width="24px" height="24px" viewBox="0 0 24 24" version="1.1" xmlns="http://www.w3.org/2000/svg" xmlns:xlink="http://www.w3.org/1999/xlink">
    <!-- Generator: Sketch 39.1 (31720) - http://www.bohemiancoding.com/sketch -->
    <title>Page 1 Copy 3</title>
    <desc>Created with Sketch.</desc>
    <defs>
        <polygon id="path-1" points="11.6629029 24 0 24 0 0.674742857 11.6629029 0.674742857 23.3258057 0.674742857 23.3258057 24"></polygon>
    </defs>
    <g id="Un-authenticated-(CommBank)" stroke="none" stroke-width="1" fill="none" fill-rule="evenodd">
        <g id="Tablet-Portrait" transform="translate(-116.000000, -1933.000000)">
            <g id="Global-footer" transform="translate(0.000000, 1745.000000)">
                <g id="Page-1-Copy-3" transform="translate(116.000000, 188.000000)">
                    <g id="Group-3" transform="translate(0.000000, 0.010697)">
                        <mask id="mask-2" fill="white">
                            <use xlink:href="#path-1"></use>
                        </mask>
                        <g id="Clip-2"></g>
                        <path d="M11.6624914,24 C18.1040914,24 23.3258057,18.7782857 23.3258057,12.3373714 C23.3258057,5.89645714 18.1040914,0.674742857 11.6624914,0.674742857 C5.22157714,0.674742857 -0.000137142857,5.89645714 -0.000137142857,12.3373714 C-0.000137142857,18.7782857 5.22157714,24 11.6624914,24" id="Fill-1" fill="#E9644A" mask="url(#mask-2)"></path>
                    </g>
                    <path d="M17.49408,14.43312 L17.49408,10.2632914 C17.49408,10.2632914 17.49408,8.25346286 15.4835657,8.25346286 L7.84059429,8.25346286 C7.84059429,8.25346286 5.83145143,8.25346286 5.83145143,10.2632914 L5.83145143,14.43312 C5.83145143,14.43312 5.83145143,16.4429486 7.84059429,16.4429486 L15.4835657,16.4429486 C15.4835657,16.4429486 17.49408,16.4429486 17.49408,14.43312 L17.49408,14.43312 Z M13.9269943,12.3540343 L10.1082514,14.59632 L10.1082514,10.1110629 L13.9269943,12.3540343 Z" id="Fill-4" fill="#FEFEFE"></path>
                </g>
            </g>
        </g>
    </g>
</svg>